<svg width="471" height="141" viewBox="0 0 471 141" fill="none" xmlns="http://www.w3.org/2000/svg">
<rect width="471" height="141" fill="#F5F5F5"/>
<rect x="0.5" y="0.5" width="470" height="140" rx="60" fill="#29D361"/>
<rect x="0.5" y="0.5" width="470" height="140" rx="60" stroke="black" stroke-opacity="0.12"/>
<rect x="0.5" y="0.5" width="470" height="140" rx="60" stroke="#226BD8" stroke-opacity="0.5"/>
<path d="M44.5 82.5C43.4391 82.5 42.4217 82.9214 41.6716 83.6716C40.9214 84.4217 40.5 85.4391 40.5 86.5V88.5C40.5 89.0304 40.7107 89.5391 41.0858 89.9142C41.4609 90.2893 41.9696 90.5 42.5 90.5H66.5C67.0304 90.5 67.5391 90.2893 67.9142 89.9142C68.2893 89.5391 68.5 89.0304 68.5 88.5V86.5C68.5 85.4391 68.0786 84.4217 67.3284 83.6716C66.5783 82.9214 65.5609 82.5 64.5 82.5H44.5ZM44.5 82.5L49.926 70.87M63.5 82.5C65.5 78.5 68.5 72.5 68.5 64.5C68.5 60.787 67.025 57.226 64.3995 54.6005C61.774 51.975 58.213 50.5 54.5 50.5H43.77C43.39 50.5001 43.0179 50.6086 42.6972 50.8125C42.3766 51.0165 42.1207 51.3077 41.9595 51.6518C41.7983 51.996 41.7386 52.3789 41.7872 52.7558C41.8358 53.1327 41.9908 53.488 42.234 53.78L44.5 56.5L39.86 68.104C39.4888 69.0313 39.4779 70.0639 39.8295 70.9988C40.1811 71.9337 40.8697 72.7032 41.76 73.156L47.5 76.068M60.5 56.5L63.35 53.65M64.5 62.5L67.56 59.44" stroke="black" stroke-width="2" stroke-linecap="round" stroke-linejoin="round"/>
<path d="M324.714 21.504C325.545 21.504 326.24 21.5833 326.8 21.742C327.369 21.9007 327.794 22.162 328.074 22.526C328.363 22.89 328.508 23.3753 328.508 23.982C328.508 24.374 328.433 24.724 328.284 25.032C328.144 25.3307 327.929 25.5827 327.64 25.788C327.36 25.984 327.015 26.1193 326.604 26.194V26.264C327.024 26.3293 327.402 26.4507 327.738 26.628C328.083 26.8053 328.354 27.0573 328.55 27.384C328.746 27.7107 328.844 28.1353 328.844 28.658C328.844 29.2647 328.704 29.7827 328.424 30.212C328.144 30.632 327.743 30.954 327.22 31.178C326.707 31.3927 326.091 31.5 325.372 31.5H321.858V21.504H324.714ZM324.966 25.76C325.825 25.76 326.413 25.6247 326.73 25.354C327.047 25.074 327.206 24.6633 327.206 24.122C327.206 23.5713 327.01 23.1793 326.618 22.946C326.235 22.7033 325.619 22.582 324.77 22.582H323.118V25.76H324.966ZM323.118 26.81V30.436H325.134C326.021 30.436 326.637 30.2633 326.982 29.918C327.327 29.5727 327.5 29.12 327.5 28.56C327.5 28.2053 327.421 27.8973 327.262 27.636C327.113 27.3747 326.856 27.174 326.492 27.034C326.137 26.8847 325.652 26.81 325.036 26.81H323.118ZM330.795 31.5V23.996H332.027V27.076H333.973C334.627 27.076 335.163 27.1553 335.583 27.314C336.003 27.4727 336.316 27.7107 336.521 28.028C336.727 28.336 336.829 28.728 336.829 29.204C336.829 29.6707 336.727 30.0767 336.521 30.422C336.325 30.7673 336.013 31.0333 335.583 31.22C335.163 31.4067 334.608 31.5 333.917 31.5H330.795ZM333.805 30.506C334.337 30.506 334.771 30.4173 335.107 30.24C335.443 30.0533 335.611 29.7313 335.611 29.274C335.611 28.8167 335.457 28.5087 335.149 28.35C334.841 28.182 334.398 28.098 333.819 28.098H332.027V30.506H333.805ZM338.075 31.5V23.996H339.307V31.5H338.075ZM348.034 23.996V31.5H346.802V25.046H342.924V31.5H341.692V23.996H348.034ZM356.952 27.734C356.952 28.3593 356.868 28.9147 356.7 29.4C356.542 29.876 356.308 30.282 356 30.618C355.702 30.954 355.333 31.2107 354.894 31.388C354.465 31.556 353.984 31.64 353.452 31.64C352.958 31.64 352.5 31.556 352.08 31.388C351.66 31.2107 351.296 30.954 350.988 30.618C350.68 30.282 350.438 29.876 350.26 29.4C350.092 28.9147 350.008 28.3593 350.008 27.734C350.008 26.9033 350.148 26.2033 350.428 25.634C350.708 25.0553 351.11 24.6167 351.632 24.318C352.155 24.01 352.776 23.856 353.494 23.856C354.176 23.856 354.773 24.01 355.286 24.318C355.809 24.6167 356.215 25.0553 356.504 25.634C356.803 26.2033 356.952 26.9033 356.952 27.734ZM351.282 27.734C351.282 28.322 351.357 28.8353 351.506 29.274C351.665 29.7033 351.908 30.0347 352.234 30.268C352.561 30.5013 352.976 30.618 353.48 30.618C353.984 30.618 354.4 30.5013 354.726 30.268C355.053 30.0347 355.291 29.7033 355.44 29.274C355.599 28.8353 355.678 28.322 355.678 27.734C355.678 27.1367 355.599 26.628 355.44 26.208C355.282 25.788 355.039 25.466 354.712 25.242C354.395 25.0087 353.98 24.892 353.466 24.892C352.701 24.892 352.146 25.144 351.8 25.648C351.455 26.152 351.282 26.8473 351.282 27.734ZM364.617 31.5H363.371V25.018H361.159C361.066 26.2033 360.949 27.216 360.809 28.056C360.669 28.8867 360.492 29.5633 360.277 30.086C360.062 30.6087 359.806 30.9913 359.507 31.234C359.208 31.4767 358.858 31.598 358.457 31.598C358.336 31.598 358.214 31.5887 358.093 31.57C357.981 31.5607 357.888 31.5373 357.813 31.5V30.576C357.869 30.5947 357.93 30.6087 357.995 30.618C358.06 30.6273 358.126 30.632 358.191 30.632C358.396 30.632 358.583 30.548 358.751 30.38C358.919 30.212 359.068 29.9553 359.199 29.61C359.339 29.2647 359.465 28.8307 359.577 28.308C359.689 27.776 359.787 27.1507 359.871 26.432C359.955 25.7133 360.03 24.9013 360.095 23.996H364.617V31.5ZM368.231 23.996V27.118H372.305V23.996H373.537V31.5H372.305V28.154H368.231V31.5H366.999V23.996H368.231ZM378.811 23.856C379.455 23.856 380.005 23.996 380.463 24.276C380.929 24.556 381.284 24.9527 381.527 25.466C381.779 25.97 381.905 26.5627 381.905 27.244V27.986H376.767C376.785 28.8353 377 29.484 377.411 29.932C377.831 30.3707 378.414 30.59 379.161 30.59C379.637 30.59 380.057 30.548 380.421 30.464C380.794 30.3707 381.177 30.24 381.569 30.072V31.15C381.186 31.318 380.808 31.4393 380.435 31.514C380.061 31.598 379.618 31.64 379.105 31.64C378.395 31.64 377.765 31.4953 377.215 31.206C376.673 30.9167 376.249 30.4873 375.941 29.918C375.642 29.3393 375.493 28.6347 375.493 27.804C375.493 26.9827 375.628 26.278 375.899 25.69C376.179 25.102 376.566 24.6493 377.061 24.332C377.565 24.0147 378.148 23.856 378.811 23.856ZM378.797 24.864C378.209 24.864 377.742 25.0553 377.397 25.438C377.061 25.8113 376.86 26.334 376.795 27.006H380.617C380.617 26.5767 380.551 26.2033 380.421 25.886C380.29 25.5687 380.089 25.3213 379.819 25.144C379.557 24.9573 379.217 24.864 378.797 24.864ZM385.047 23.996V27.118H389.121V23.996H390.353V31.5H389.121V28.154H385.047V31.5H383.815V23.996H385.047ZM399.253 27.734C399.253 28.3593 399.169 28.9147 399.001 29.4C398.842 29.876 398.609 30.282 398.301 30.618C398.002 30.954 397.634 31.2107 397.195 31.388C396.766 31.556 396.285 31.64 395.753 31.64C395.258 31.64 394.801 31.556 394.381 31.388C393.961 31.2107 393.597 30.954 393.289 30.618C392.981 30.282 392.738 29.876 392.561 29.4C392.393 28.9147 392.309 28.3593 392.309 27.734C392.309 26.9033 392.449 26.2033 392.729 25.634C393.009 25.0553 393.41 24.6167 393.933 24.318C394.456 24.01 395.076 23.856 395.795 23.856C396.476 23.856 397.074 24.01 397.587 24.318C398.11 24.6167 398.516 25.0553 398.805 25.634C399.104 26.2033 399.253 26.9033 399.253 27.734ZM393.583 27.734C393.583 28.322 393.658 28.8353 393.807 29.274C393.966 29.7033 394.208 30.0347 394.535 30.268C394.862 30.5013 395.277 30.618 395.781 30.618C396.285 30.618 396.7 30.5013 397.027 30.268C397.354 30.0347 397.592 29.7033 397.741 29.274C397.9 28.8353 397.979 28.322 397.979 27.734C397.979 27.1367 397.9 26.628 397.741 26.208C397.582 25.788 397.34 25.466 397.013 25.242C396.696 25.0087 396.28 24.892 395.767 24.892C395.002 24.892 394.446 25.144 394.101 25.648C393.756 26.152 393.583 26.8473 393.583 27.734ZM323.034 49.5V40.05H321.074V39.07H324.154V49.5H323.034ZM329.759 49.668C329.105 49.668 328.527 49.5233 328.023 49.234C327.519 48.9353 327.122 48.5293 326.833 48.016C326.543 47.4933 326.399 46.896 326.399 46.224C326.399 45.8507 326.441 45.482 326.525 45.118C326.618 44.754 326.753 44.3947 326.931 44.04C327.117 43.6853 327.341 43.3307 327.603 42.976L330.543 39.07H331.887L328.261 43.816L328.051 43.942C328.191 43.7087 328.354 43.5313 328.541 43.41C328.727 43.2793 328.933 43.186 329.157 43.13C329.39 43.074 329.637 43.046 329.899 43.046C330.505 43.046 331.051 43.1907 331.537 43.48C332.022 43.76 332.405 44.1473 332.685 44.642C332.974 45.1367 333.119 45.7107 333.119 46.364C333.119 46.9893 332.969 47.554 332.671 48.058C332.381 48.5527 331.985 48.9447 331.481 49.234C330.977 49.5233 330.403 49.668 329.759 49.668ZM329.759 48.688C330.188 48.688 330.571 48.59 330.907 48.394C331.243 48.1887 331.509 47.9087 331.705 47.554C331.901 47.1993 331.999 46.8027 331.999 46.364C331.999 45.916 331.901 45.5193 331.705 45.174C331.518 44.8287 331.257 44.558 330.921 44.362C330.585 44.1567 330.197 44.054 329.759 44.054C329.329 44.054 328.942 44.1567 328.597 44.362C328.261 44.558 327.995 44.8287 327.799 45.174C327.612 45.5193 327.519 45.916 327.519 46.364C327.519 46.8027 327.617 47.1993 327.813 47.554C328.009 47.9087 328.275 48.1887 328.611 48.394C328.947 48.59 329.329 48.688 329.759 48.688ZM338.14 49.668C337.599 49.668 337.095 49.5747 336.628 49.388C336.171 49.2013 335.769 48.9353 335.424 48.59C335.079 48.2447 334.817 47.834 334.64 47.358L335.494 46.938C335.709 47.4793 336.059 47.9087 336.544 48.226C337.039 48.534 337.571 48.688 338.14 48.688C338.597 48.688 339.003 48.5807 339.358 48.366C339.722 48.1513 340.007 47.862 340.212 47.498C340.417 47.1247 340.52 46.7093 340.52 46.252C340.52 45.776 340.413 45.356 340.198 44.992C339.993 44.628 339.713 44.3433 339.358 44.138C339.003 43.9233 338.602 43.816 338.154 43.816C337.697 43.816 337.272 43.9233 336.88 44.138C336.497 44.3433 336.217 44.5953 336.04 44.894L335.158 44.726L335.942 39.07H341.22V40.05H336.348L336.782 39.672L336.152 44.124L335.718 43.928C336.045 43.5267 336.427 43.242 336.866 43.074C337.305 42.8967 337.753 42.808 338.21 42.808C338.882 42.808 339.475 42.9667 339.988 43.284C340.501 43.592 340.903 44.0073 341.192 44.53C341.491 45.0433 341.64 45.6173 341.64 46.252C341.64 46.896 341.486 47.4793 341.178 48.002C340.879 48.5153 340.464 48.9213 339.932 49.22C339.409 49.5187 338.812 49.668 338.14 49.668ZM342.567 51.18L347.299 39.644H348.517L343.785 51.18H342.567ZM352.657 49.668C352.116 49.668 351.616 49.5747 351.159 49.388C350.702 49.2013 350.3 48.9353 349.955 48.59C349.619 48.2447 349.362 47.834 349.185 47.358L350.081 46.938C350.296 47.4793 350.632 47.9087 351.089 48.226C351.546 48.534 352.069 48.688 352.657 48.688C353.124 48.688 353.539 48.5993 353.903 48.422C354.267 48.2353 354.552 47.9693 354.757 47.624C354.962 47.2787 355.065 46.8587 355.065 46.364C355.065 45.8693 354.958 45.4493 354.743 45.104C354.538 44.7587 354.253 44.4973 353.889 44.32C353.525 44.1427 353.11 44.054 352.643 44.054C352.522 44.054 352.386 44.0587 352.237 44.068C352.097 44.0773 351.98 44.0913 351.887 44.11L351.663 43.62L354.477 40.05H349.675V39.07H355.737V40.05L353.105 43.368L352.965 43.186C353.59 43.2047 354.146 43.354 354.631 43.634C355.116 43.9047 355.494 44.2733 355.765 44.74C356.045 45.2067 356.185 45.748 356.185 46.364C356.185 46.98 356.036 47.54 355.737 48.044C355.438 48.5387 355.023 48.9353 354.491 49.234C353.959 49.5233 353.348 49.668 352.657 49.668ZM357.884 49.5V48.8L360.796 45.594C361.366 44.9687 361.828 44.4507 362.182 44.04C362.546 43.6293 362.817 43.256 362.994 42.92C363.172 42.584 363.26 42.22 363.26 41.828C363.26 41.2027 363.078 40.722 362.714 40.386C362.35 40.05 361.865 39.882 361.258 39.882C360.633 39.882 360.106 40.0593 359.676 40.414C359.256 40.7687 358.972 41.2633 358.822 41.898L357.8 41.674C357.922 41.1047 358.141 40.6147 358.458 40.204C358.776 39.7933 359.172 39.476 359.648 39.252C360.124 39.0187 360.656 38.902 361.244 38.902C361.87 38.902 362.416 39.028 362.882 39.28C363.349 39.532 363.713 39.8773 363.974 40.316C364.245 40.7547 364.38 41.2587 364.38 41.828C364.38 42.22 364.296 42.598 364.128 42.962C363.97 43.326 363.727 43.718 363.4 44.138C363.074 44.558 362.654 45.048 362.14 45.608L359.494 48.52H364.66V49.5H357.884ZM370.605 49.668C369.783 49.668 369.06 49.444 368.435 48.996C367.819 48.5387 367.338 47.9087 366.993 47.106C366.647 46.294 366.475 45.3513 366.475 44.278C366.475 43.2047 366.647 42.2667 366.993 41.464C367.338 40.652 367.819 40.022 368.435 39.574C369.051 39.126 369.769 38.902 370.591 38.902C371.412 38.902 372.131 39.126 372.747 39.574C373.363 40.022 373.843 40.652 374.189 41.464C374.534 42.2667 374.707 43.2047 374.707 44.278C374.707 45.3513 374.534 46.294 374.189 47.106C373.853 47.918 373.377 48.548 372.761 48.996C372.145 49.444 371.426 49.668 370.605 49.668ZM370.605 48.618C371.202 48.618 371.725 48.436 372.173 48.072C372.621 47.708 372.971 47.204 373.223 46.56C373.475 45.9067 373.601 45.146 373.601 44.278C373.601 43.41 373.475 42.654 373.223 42.01C372.971 41.3567 372.621 40.8527 372.173 40.498C371.725 40.134 371.197 39.952 370.591 39.952C369.993 39.952 369.471 40.134 369.023 40.498C368.575 40.8527 368.225 41.3567 367.973 42.01C367.721 42.654 367.595 43.41 367.595 44.278C367.595 45.1367 367.721 45.8927 367.973 46.546C368.225 47.1993 368.575 47.708 369.023 48.072C369.48 48.436 370.007 48.618 370.605 48.618Z" fill="black"/>
<path d="M95.142 22.47C94.61 22.47 94.1293 22.5633 93.7 22.75C93.2707 22.9273 92.9067 23.1933 92.608 23.548C92.3093 23.8933 92.0807 24.318 91.922 24.822C91.7633 25.3167 91.684 25.8767 91.684 26.502C91.684 27.3233 91.81 28.0373 92.062 28.644C92.3233 29.2507 92.706 29.7173 93.21 30.044C93.7233 30.3707 94.3627 30.534 95.128 30.534C95.5667 30.534 95.982 30.4967 96.374 30.422C96.766 30.3473 97.1487 30.254 97.522 30.142V31.234C97.1487 31.374 96.7613 31.4767 96.36 31.542C95.968 31.6073 95.4967 31.64 94.946 31.64C93.9287 31.64 93.0793 31.43 92.398 31.01C91.7167 30.59 91.2033 29.9927 90.858 29.218C90.522 28.4433 90.354 27.5333 90.354 26.488C90.354 25.732 90.4567 25.0413 90.662 24.416C90.8767 23.7907 91.1847 23.2493 91.586 22.792C91.9967 22.3347 92.5007 21.9847 93.098 21.742C93.6953 21.49 94.3813 21.364 95.156 21.364C95.6693 21.364 96.164 21.4153 96.64 21.518C97.116 21.6207 97.5407 21.7653 97.914 21.952L97.41 23.016C97.102 22.876 96.7567 22.75 96.374 22.638C96.0007 22.526 95.59 22.47 95.142 22.47ZM105.108 23.996V30.464H106.2V34.104H105.01V31.5H99.7877V34.104H98.6117V30.464H99.2137C99.643 29.8667 99.9977 29.218 100.278 28.518C100.567 27.8087 100.782 27.0713 100.922 26.306C101.071 25.5313 101.15 24.7613 101.16 23.996H105.108ZM102.252 24.962C102.214 25.5967 102.116 26.2547 101.958 26.936C101.799 27.608 101.594 28.252 101.342 28.868C101.099 29.484 100.814 30.016 100.488 30.464H103.918V24.962H102.252ZM110.568 23.856C111.212 23.856 111.763 23.996 112.22 24.276C112.687 24.556 113.042 24.9527 113.284 25.466C113.536 25.97 113.662 26.5627 113.662 27.244V27.986H108.524C108.543 28.8353 108.758 29.484 109.168 29.932C109.588 30.3707 110.172 30.59 110.918 30.59C111.394 30.59 111.814 30.548 112.178 30.464C112.552 30.3707 112.934 30.24 113.326 30.072V31.15C112.944 31.318 112.566 31.4393 112.192 31.514C111.819 31.598 111.376 31.64 110.862 31.64C110.153 31.64 109.523 31.4953 108.972 31.206C108.431 30.9167 108.006 30.4873 107.698 29.918C107.4 29.3393 107.25 28.6347 107.25 27.804C107.25 26.9827 107.386 26.278 107.656 25.69C107.936 25.102 108.324 24.6493 108.818 24.332C109.322 24.0147 109.906 23.856 110.568 23.856ZM110.554 24.864C109.966 24.864 109.5 25.0553 109.154 25.438C108.818 25.8113 108.618 26.334 108.552 27.006H112.374C112.374 26.5767 112.309 26.2033 112.178 25.886C112.048 25.5687 111.847 25.3213 111.576 25.144C111.315 24.9573 110.974 24.864 110.554 24.864ZM121.285 31.5H120.039V25.018H117.827C117.733 26.2033 117.617 27.216 117.477 28.056C117.337 28.8867 117.159 29.5633 116.945 30.086C116.73 30.6087 116.473 30.9913 116.175 31.234C115.876 31.4767 115.526 31.598 115.125 31.598C115.003 31.598 114.882 31.5887 114.761 31.57C114.649 31.5607 114.555 31.5373 114.481 31.5V30.576C114.537 30.5947 114.597 30.6087 114.663 30.618C114.728 30.6273 114.793 30.632 114.859 30.632C115.064 30.632 115.251 30.548 115.419 30.38C115.587 30.212 115.736 29.9553 115.867 29.61C116.007 29.2647 116.133 28.8307 116.245 28.308C116.357 27.776 116.455 27.1507 116.539 26.432C116.623 25.7133 116.697 24.9013 116.763 23.996H121.285V31.5ZM126.509 23.87C127.423 23.87 128.1 24.0707 128.539 24.472C128.977 24.8733 129.197 25.5127 129.197 26.39V31.5H128.301L128.063 30.436H128.007C127.792 30.7067 127.568 30.9353 127.335 31.122C127.111 31.2993 126.849 31.43 126.551 31.514C126.261 31.598 125.907 31.64 125.487 31.64C125.039 31.64 124.633 31.5607 124.269 31.402C123.914 31.2433 123.634 31.0007 123.429 30.674C123.223 30.338 123.121 29.918 123.121 29.414C123.121 28.6673 123.415 28.0933 124.003 27.692C124.591 27.2813 125.496 27.0573 126.719 27.02L127.993 26.978V26.53C127.993 25.9047 127.857 25.4707 127.587 25.228C127.316 24.9853 126.933 24.864 126.439 24.864C126.047 24.864 125.673 24.9247 125.319 25.046C124.964 25.158 124.633 25.2887 124.325 25.438L123.947 24.514C124.273 24.3367 124.661 24.1873 125.109 24.066C125.557 23.9353 126.023 23.87 126.509 23.87ZM126.873 27.874C125.939 27.9113 125.291 28.0607 124.927 28.322C124.572 28.5833 124.395 28.952 124.395 29.428C124.395 29.848 124.521 30.156 124.773 30.352C125.034 30.548 125.365 30.646 125.767 30.646C126.401 30.646 126.929 30.4733 127.349 30.128C127.769 29.7733 127.979 29.232 127.979 28.504V27.832L126.873 27.874ZM136.694 25.032H134.244V31.5H133.026V25.032H130.604V23.996H136.694V25.032ZM141.63 27.076C142.284 27.076 142.825 27.1553 143.254 27.314C143.684 27.4727 144.006 27.7107 144.22 28.028C144.444 28.336 144.556 28.728 144.556 29.204C144.556 29.6707 144.449 30.0767 144.234 30.422C144.029 30.7673 143.707 31.0333 143.268 31.22C142.83 31.4067 142.265 31.5 141.574 31.5H138.172V23.996H139.404V27.076H141.63ZM143.324 29.274C143.324 28.8167 143.161 28.5087 142.834 28.35C142.517 28.182 142.069 28.098 141.49 28.098H139.404V30.506H141.518C142.041 30.506 142.47 30.4127 142.806 30.226C143.152 30.0393 143.324 29.722 143.324 29.274ZM155.206 23.996V31.5H153.974V25.046H150.096V31.5H148.864V23.996H155.206ZM161.17 23.856C162.094 23.856 162.836 24.178 163.396 24.822C163.965 25.466 164.25 26.4367 164.25 27.734C164.25 28.5833 164.119 29.302 163.858 29.89C163.606 30.4687 163.247 30.9073 162.78 31.206C162.323 31.4953 161.781 31.64 161.156 31.64C160.773 31.64 160.433 31.5887 160.134 31.486C159.835 31.3833 159.579 31.2527 159.364 31.094C159.159 30.926 158.981 30.744 158.832 30.548H158.748C158.767 30.7067 158.785 30.9073 158.804 31.15C158.823 31.3927 158.832 31.6027 158.832 31.78V34.86H157.6V23.996H158.608L158.776 25.018H158.832C158.981 24.8033 159.159 24.6073 159.364 24.43C159.579 24.2527 159.831 24.1127 160.12 24.01C160.419 23.9073 160.769 23.856 161.17 23.856ZM160.946 24.892C160.442 24.892 160.036 24.99 159.728 25.186C159.42 25.3727 159.196 25.6573 159.056 26.04C158.916 26.4227 158.841 26.908 158.832 27.496V27.734C158.832 28.35 158.897 28.8727 159.028 29.302C159.159 29.7313 159.378 30.058 159.686 30.282C160.003 30.506 160.433 30.618 160.974 30.618C161.431 30.618 161.805 30.492 162.094 30.24C162.393 29.988 162.612 29.6473 162.752 29.218C162.901 28.7793 162.976 28.28 162.976 27.72C162.976 26.8613 162.808 26.1753 162.472 25.662C162.145 25.1487 161.637 24.892 160.946 24.892ZM167.375 28.574C167.375 28.658 167.371 28.7793 167.361 28.938C167.361 29.0873 167.357 29.2507 167.347 29.428C167.338 29.596 167.329 29.7593 167.319 29.918C167.31 30.0673 167.301 30.1887 167.291 30.282L171.309 23.996H172.821V31.5H171.673V27.076C171.673 26.9267 171.673 26.7307 171.673 26.488C171.683 26.2453 171.692 26.0073 171.701 25.774C171.711 25.5313 171.72 25.3493 171.729 25.228L167.739 31.5H166.213V23.996H167.375V28.574ZM180.922 31.5H179.676V25.018H177.464C177.37 26.2033 177.254 27.216 177.114 28.056C176.974 28.8867 176.796 29.5633 176.582 30.086C176.367 30.6087 176.11 30.9913 175.812 31.234C175.513 31.4767 175.163 31.598 174.762 31.598C174.64 31.598 174.519 31.5887 174.398 31.57C174.286 31.5607 174.192 31.5373 174.118 31.5V30.576C174.174 30.5947 174.234 30.6087 174.3 30.618C174.365 30.6273 174.43 30.632 174.496 30.632C174.701 30.632 174.888 30.548 175.056 30.38C175.224 30.212 175.373 29.9553 175.504 29.61C175.644 29.2647 175.77 28.8307 175.882 28.308C175.994 27.776 176.092 27.1507 176.176 26.432C176.26 25.7133 176.334 24.9013 176.4 23.996H180.922V31.5ZM189.827 27.734C189.827 28.3593 189.743 28.9147 189.575 29.4C189.417 29.876 189.183 30.282 188.875 30.618C188.577 30.954 188.208 31.2107 187.769 31.388C187.34 31.556 186.859 31.64 186.327 31.64C185.833 31.64 185.375 31.556 184.955 31.388C184.535 31.2107 184.171 30.954 183.863 30.618C183.555 30.282 183.313 29.876 183.135 29.4C182.967 28.9147 182.883 28.3593 182.883 27.734C182.883 26.9033 183.023 26.2033 183.303 25.634C183.583 25.0553 183.985 24.6167 184.507 24.318C185.03 24.01 185.651 23.856 186.369 23.856C187.051 23.856 187.648 24.01 188.161 24.318C188.684 24.6167 189.09 25.0553 189.379 25.634C189.678 26.2033 189.827 26.9033 189.827 27.734ZM184.157 27.734C184.157 28.322 184.232 28.8353 184.381 29.274C184.54 29.7033 184.783 30.0347 185.109 30.268C185.436 30.5013 185.851 30.618 186.355 30.618C186.859 30.618 187.275 30.5013 187.601 30.268C187.928 30.0347 188.166 29.7033 188.315 29.274C188.474 28.8353 188.553 28.322 188.553 27.734C188.553 27.1367 188.474 26.628 188.315 26.208C188.157 25.788 187.914 25.466 187.587 25.242C187.27 25.0087 186.855 24.892 186.341 24.892C185.576 24.892 185.021 25.144 184.675 25.648C184.33 26.152 184.157 26.8473 184.157 27.734ZM200.508 23.996L197.414 27.636L200.774 31.5H199.374L196.126 27.692V31.5H194.978V27.692L191.73 31.5H190.33L193.69 27.636L190.596 23.996H191.94L194.978 27.636V23.996H196.126V27.636L199.178 23.996H200.508ZM204.631 23.856C205.275 23.856 205.826 23.996 206.283 24.276C206.75 24.556 207.104 24.9527 207.347 25.466C207.599 25.97 207.725 26.5627 207.725 27.244V27.986H202.587C202.606 28.8353 202.82 29.484 203.231 29.932C203.651 30.3707 204.234 30.59 204.981 30.59C205.457 30.59 205.877 30.548 206.241 30.464C206.614 30.3707 206.997 30.24 207.389 30.072V31.15C207.006 31.318 206.628 31.4393 206.255 31.514C205.882 31.598 205.438 31.64 204.925 31.64C204.216 31.64 203.586 31.4953 203.035 31.206C202.494 30.9167 202.069 30.4873 201.761 29.918C201.462 29.3393 201.313 28.6347 201.313 27.804C201.313 26.9827 201.448 26.278 201.719 25.69C201.999 25.102 202.386 24.6493 202.881 24.332C203.385 24.0147 203.968 23.856 204.631 23.856ZM204.617 24.864C204.029 24.864 203.562 25.0553 203.217 25.438C202.881 25.8113 202.68 26.334 202.615 27.006H206.437C206.437 26.5767 206.372 26.2033 206.241 25.886C206.11 25.5687 205.91 25.3213 205.639 25.144C205.378 24.9573 205.037 24.864 204.617 24.864ZM210.867 23.996V27.118H214.941V23.996H216.173V31.5H214.941V28.154H210.867V31.5H209.635V23.996H210.867ZM219.711 28.574C219.711 28.658 219.707 28.7793 219.697 28.938C219.697 29.0873 219.693 29.2507 219.683 29.428C219.674 29.596 219.665 29.7593 219.655 29.918C219.646 30.0673 219.637 30.1887 219.627 30.282L223.645 23.996H225.157V31.5H224.009V27.076C224.009 26.9267 224.009 26.7307 224.009 26.488C224.019 26.2453 224.028 26.0073 224.037 25.774C224.047 25.5313 224.056 25.3493 224.065 25.228L220.075 31.5H218.549V23.996H219.711V28.574ZM230.443 23.856C231.087 23.856 231.638 23.996 232.095 24.276C232.562 24.556 232.917 24.9527 233.159 25.466C233.411 25.97 233.537 26.5627 233.537 27.244V27.986H228.399C228.418 28.8353 228.633 29.484 229.043 29.932C229.463 30.3707 230.047 30.59 230.793 30.59C231.269 30.59 231.689 30.548 232.053 30.464C232.427 30.3707 232.809 30.24 233.201 30.072V31.15C232.819 31.318 232.441 31.4393 232.067 31.514C231.694 31.598 231.251 31.64 230.737 31.64C230.028 31.64 229.398 31.4953 228.847 31.206C228.306 30.9167 227.881 30.4873 227.573 29.918C227.275 29.3393 227.125 28.6347 227.125 27.804C227.125 26.9827 227.261 26.278 227.531 25.69C227.811 25.102 228.199 24.6493 228.693 24.332C229.197 24.0147 229.781 23.856 230.443 23.856ZM230.429 24.864C229.841 24.864 229.375 25.0553 229.029 25.438C228.693 25.8113 228.493 26.334 228.427 27.006H232.249C232.249 26.5767 232.184 26.2033 232.053 25.886C231.923 25.5687 231.722 25.3213 231.451 25.144C231.19 24.9573 230.849 24.864 230.429 24.864ZM99.58 44.488C99.58 45.2627 99.482 45.9673 99.286 46.602C99.09 47.2273 98.796 47.7687 98.404 48.226C98.0213 48.6833 97.5407 49.0333 96.962 49.276C96.3927 49.5187 95.73 49.64 94.974 49.64C94.19 49.64 93.5087 49.5187 92.93 49.276C92.3513 49.024 91.8707 48.674 91.488 48.226C91.1053 47.7687 90.8207 47.2227 90.634 46.588C90.4473 45.9533 90.354 45.2487 90.354 44.474C90.354 43.4473 90.522 42.5513 90.858 41.786C91.194 41.0207 91.7027 40.4233 92.384 39.994C93.0747 39.5647 93.9427 39.35 94.988 39.35C95.9867 39.35 96.8267 39.5647 97.508 39.994C98.1893 40.414 98.7027 41.0113 99.048 41.786C99.4027 42.5513 99.58 43.452 99.58 44.488ZM91.684 44.488C91.684 45.328 91.8007 46.0513 92.034 46.658C92.2673 47.2647 92.6267 47.7313 93.112 48.058C93.6067 48.3847 94.2273 48.548 94.974 48.548C95.73 48.548 96.346 48.3847 96.822 48.058C97.3073 47.7313 97.6667 47.2647 97.9 46.658C98.1333 46.0513 98.25 45.328 98.25 44.488C98.25 43.228 97.9887 42.2433 97.466 41.534C96.9433 40.8153 96.1173 40.456 94.988 40.456C94.232 40.456 93.6067 40.6193 93.112 40.946C92.6267 41.2633 92.2673 41.7253 92.034 42.332C91.8007 42.9293 91.684 43.648 91.684 44.488ZM104.638 49.64C103.975 49.64 103.382 49.5047 102.86 49.234C102.346 48.9633 101.94 48.5433 101.642 47.974C101.352 47.4047 101.208 46.6767 101.208 45.79C101.208 44.866 101.362 44.1147 101.67 43.536C101.978 42.9573 102.393 42.5327 102.916 42.262C103.448 41.9913 104.05 41.856 104.722 41.856C105.104 41.856 105.473 41.898 105.828 41.982C106.182 42.0567 106.472 42.15 106.696 42.262L106.318 43.284C106.094 43.2 105.832 43.1207 105.534 43.046C105.235 42.9713 104.955 42.934 104.694 42.934C104.19 42.934 103.774 43.0413 103.448 43.256C103.121 43.4707 102.878 43.788 102.72 44.208C102.561 44.628 102.482 45.1507 102.482 45.776C102.482 46.3733 102.561 46.882 102.72 47.302C102.878 47.722 103.116 48.0393 103.434 48.254C103.751 48.4687 104.148 48.576 104.624 48.576C105.034 48.576 105.394 48.534 105.702 48.45C106.019 48.366 106.308 48.2633 106.57 48.142V49.234C106.318 49.3647 106.038 49.4627 105.73 49.528C105.431 49.6027 105.067 49.64 104.638 49.64ZM114.878 45.734C114.878 46.3593 114.794 46.9147 114.626 47.4C114.467 47.876 114.234 48.282 113.926 48.618C113.627 48.954 113.259 49.2107 112.82 49.388C112.391 49.556 111.91 49.64 111.378 49.64C110.883 49.64 110.426 49.556 110.006 49.388C109.586 49.2107 109.222 48.954 108.914 48.618C108.606 48.282 108.363 47.876 108.186 47.4C108.018 46.9147 107.934 46.3593 107.934 45.734C107.934 44.9033 108.074 44.2033 108.354 43.634C108.634 43.0553 109.035 42.6167 109.558 42.318C110.081 42.01 110.701 41.856 111.42 41.856C112.101 41.856 112.699 42.01 113.212 42.318C113.735 42.6167 114.141 43.0553 114.43 43.634C114.729 44.2033 114.878 44.9033 114.878 45.734ZM109.208 45.734C109.208 46.322 109.283 46.8353 109.432 47.274C109.591 47.7033 109.833 48.0347 110.16 48.268C110.487 48.5013 110.902 48.618 111.406 48.618C111.91 48.618 112.325 48.5013 112.652 48.268C112.979 48.0347 113.217 47.7033 113.366 47.274C113.525 46.8353 113.604 46.322 113.604 45.734C113.604 45.1367 113.525 44.628 113.366 44.208C113.207 43.788 112.965 43.466 112.638 43.242C112.321 43.0087 111.905 42.892 111.392 42.892C110.627 42.892 110.071 43.144 109.726 43.648C109.381 44.152 109.208 44.8473 109.208 45.734ZM118.805 41.856C119.374 41.856 119.869 41.9353 120.289 42.094C120.709 42.2433 121.035 42.4673 121.269 42.766C121.502 43.0553 121.619 43.41 121.619 43.83C121.619 44.2873 121.493 44.6513 121.241 44.922C120.989 45.1833 120.643 45.3747 120.205 45.496V45.552C120.503 45.636 120.779 45.7527 121.031 45.902C121.283 46.0513 121.483 46.2473 121.633 46.49C121.791 46.7327 121.871 47.0453 121.871 47.428C121.871 47.8387 121.754 48.212 121.521 48.548C121.297 48.884 120.947 49.15 120.471 49.346C120.004 49.542 119.402 49.64 118.665 49.64C118.31 49.64 117.969 49.6213 117.643 49.584C117.325 49.5467 117.036 49.4907 116.775 49.416C116.523 49.3413 116.299 49.2527 116.103 49.15V48.044C116.42 48.1933 116.793 48.3287 117.223 48.45C117.661 48.5713 118.137 48.632 118.651 48.632C119.024 48.632 119.36 48.59 119.659 48.506C119.967 48.422 120.209 48.2913 120.387 48.114C120.564 47.9273 120.653 47.6753 120.653 47.358C120.653 47.0687 120.573 46.8353 120.415 46.658C120.256 46.4713 120.018 46.3313 119.701 46.238C119.393 46.1447 118.996 46.098 118.511 46.098H117.503V45.09H118.315C118.959 45.09 119.472 45.006 119.855 44.838C120.247 44.6607 120.443 44.362 120.443 43.942C120.443 43.5873 120.293 43.3213 119.995 43.144C119.705 42.9667 119.285 42.878 118.735 42.878C118.324 42.878 117.96 42.92 117.643 43.004C117.335 43.0787 116.994 43.1953 116.621 43.354L116.187 42.374C116.588 42.1967 117.008 42.066 117.447 41.982C117.885 41.898 118.338 41.856 118.805 41.856ZM124.926 41.996V45.118H129V41.996H130.232V49.5H129V46.154H124.926V49.5H123.694V41.996H124.926ZM135.45 41.87C136.365 41.87 137.041 42.0707 137.48 42.472C137.919 42.8733 138.138 43.5127 138.138 44.39V49.5H137.242L137.004 48.436H136.948C136.733 48.7067 136.509 48.9353 136.276 49.122C136.052 49.2993 135.791 49.43 135.492 49.514C135.203 49.598 134.848 49.64 134.428 49.64C133.98 49.64 133.574 49.5607 133.21 49.402C132.855 49.2433 132.575 49.0007 132.37 48.674C132.165 48.338 132.062 47.918 132.062 47.414C132.062 46.6673 132.356 46.0933 132.944 45.692C133.532 45.2813 134.437 45.0573 135.66 45.02L136.934 44.978V44.53C136.934 43.9047 136.799 43.4707 136.528 43.228C136.257 42.9853 135.875 42.864 135.38 42.864C134.988 42.864 134.615 42.9247 134.26 43.046C133.905 43.158 133.574 43.2887 133.266 43.438L132.888 42.514C133.215 42.3367 133.602 42.1873 134.05 42.066C134.498 41.9353 134.965 41.87 135.45 41.87ZM135.814 45.874C134.881 45.9113 134.232 46.0607 133.868 46.322C133.513 46.5833 133.336 46.952 133.336 47.428C133.336 47.848 133.462 48.156 133.714 48.352C133.975 48.548 134.307 48.646 134.708 48.646C135.343 48.646 135.87 48.4733 136.29 48.128C136.71 47.7733 136.92 47.232 136.92 46.504V45.832L135.814 45.874ZM141.688 41.996V45.118H145.762V41.996H146.994V49.5H145.762V46.154H141.688V49.5H140.456V41.996H141.688ZM150.602 41.996V45.118H154.676V41.996H155.908V49.5H154.676V46.154H150.602V49.5H149.37V41.996H150.602ZM164.808 45.734C164.808 46.3593 164.724 46.9147 164.556 47.4C164.397 47.876 164.164 48.282 163.856 48.618C163.557 48.954 163.188 49.2107 162.75 49.388C162.32 49.556 161.84 49.64 161.308 49.64C160.813 49.64 160.356 49.556 159.936 49.388C159.516 49.2107 159.152 48.954 158.844 48.618C158.536 48.282 158.293 47.876 158.116 47.4C157.948 46.9147 157.864 46.3593 157.864 45.734C157.864 44.9033 158.004 44.2033 158.284 43.634C158.564 43.0553 158.965 42.6167 159.488 42.318C160.01 42.01 160.631 41.856 161.35 41.856C162.031 41.856 162.628 42.01 163.142 42.318C163.664 42.6167 164.07 43.0553 164.36 43.634C164.658 44.2033 164.808 44.9033 164.808 45.734ZM159.138 45.734C159.138 46.322 159.212 46.8353 159.362 47.274C159.52 47.7033 159.763 48.0347 160.09 48.268C160.416 48.5013 160.832 48.618 161.336 48.618C161.84 48.618 162.255 48.5013 162.582 48.268C162.908 48.0347 163.146 47.7033 163.296 47.274C163.454 46.8353 163.534 46.322 163.534 45.734C163.534 45.1367 163.454 44.628 163.296 44.208C163.137 43.788 162.894 43.466 162.568 43.242C162.25 43.0087 161.835 42.892 161.322 42.892C160.556 42.892 160.001 43.144 159.656 43.648C159.31 44.152 159.138 44.8473 159.138 45.734ZM169.77 49.64C169.108 49.64 168.515 49.5047 167.992 49.234C167.479 48.9633 167.073 48.5433 166.774 47.974C166.485 47.4047 166.34 46.6767 166.34 45.79C166.34 44.866 166.494 44.1147 166.802 43.536C167.11 42.9573 167.526 42.5327 168.048 42.262C168.58 41.9913 169.182 41.856 169.854 41.856C170.237 41.856 170.606 41.898 170.96 41.982C171.315 42.0567 171.604 42.15 171.828 42.262L171.45 43.284C171.226 43.2 170.965 43.1207 170.666 43.046C170.368 42.9713 170.088 42.934 169.826 42.934C169.322 42.934 168.907 43.0413 168.58 43.256C168.254 43.4707 168.011 43.788 167.852 44.208C167.694 44.628 167.614 45.1507 167.614 45.776C167.614 46.3733 167.694 46.882 167.852 47.302C168.011 47.722 168.249 48.0393 168.566 48.254C168.884 48.4687 169.28 48.576 169.756 48.576C170.167 48.576 170.526 48.534 170.834 48.45C171.152 48.366 171.441 48.2633 171.702 48.142V49.234C171.45 49.3647 171.17 49.4627 170.862 49.528C170.564 49.6027 170.2 49.64 169.77 49.64ZM178.667 43.032H176.217V49.5H174.999V43.032H172.577V41.996H178.667V43.032ZM183.603 45.076C184.256 45.076 184.798 45.1553 185.227 45.314C185.656 45.4727 185.978 45.7107 186.193 46.028C186.417 46.336 186.529 46.728 186.529 47.204C186.529 47.6707 186.422 48.0767 186.207 48.422C186.002 48.7673 185.68 49.0333 185.241 49.22C184.802 49.4067 184.238 49.5 183.547 49.5H180.145V41.996H181.377V45.076H183.603ZM185.297 47.274C185.297 46.8167 185.134 46.5087 184.807 46.35C184.49 46.182 184.042 46.098 183.463 46.098H181.377V48.506H183.491C184.014 48.506 184.443 48.4127 184.779 48.226C185.124 48.0393 185.297 47.722 185.297 47.274Z" fill="black"/>
<path d="M95.28 101.36V107.7H96.19V110.38H95.33V108.5H90.42V110.38H89.56V107.7H90.11C90.35 107.287 90.5767 106.823 90.79 106.31C91.01 105.797 91.2033 105.26 91.37 104.7C91.5367 104.133 91.6733 103.567 91.78 103C91.8867 102.433 91.9533 101.887 91.98 101.36H95.28ZM92.77 102.17C92.7433 102.557 92.6767 102.993 92.57 103.48C92.47 103.967 92.34 104.467 92.18 104.98C92.0267 105.487 91.8533 105.977 91.66 106.45C91.4733 106.923 91.2733 107.34 91.06 107.7H94.39V102.17H92.77ZM101.924 105.81C101.924 106.257 101.864 106.653 101.744 107C101.631 107.34 101.464 107.63 101.244 107.87C101.031 108.11 100.767 108.293 100.454 108.42C100.147 108.54 99.8041 108.6 99.4241 108.6C99.0707 108.6 98.7441 108.54 98.4441 108.42C98.1441 108.293 97.8841 108.11 97.6641 107.87C97.4441 107.63 97.2707 107.34 97.1441 107C97.0241 106.653 96.9641 106.257 96.9641 105.81C96.9641 105.217 97.0641 104.717 97.2641 104.31C97.4641 103.897 97.7507 103.583 98.1241 103.37C98.4974 103.15 98.9407 103.04 99.4541 103.04C99.9407 103.04 100.367 103.15 100.734 103.37C101.107 103.583 101.397 103.897 101.604 104.31C101.817 104.717 101.924 105.217 101.924 105.81ZM97.8741 105.81C97.8741 106.23 97.9274 106.597 98.0341 106.91C98.1474 107.217 98.3207 107.453 98.5541 107.62C98.7874 107.787 99.0841 107.87 99.4441 107.87C99.8041 107.87 100.101 107.787 100.334 107.62C100.567 107.453 100.737 107.217 100.844 106.91C100.957 106.597 101.014 106.23 101.014 105.81C101.014 105.383 100.957 105.02 100.844 104.72C100.731 104.42 100.557 104.19 100.324 104.03C100.097 103.863 99.8007 103.78 99.4341 103.78C98.8874 103.78 98.4907 103.96 98.2441 104.32C97.9974 104.68 97.8741 105.177 97.8741 105.81ZM104.748 108.5V108L106.828 105.71C107.235 105.263 107.565 104.893 107.818 104.6C108.078 104.307 108.271 104.04 108.398 103.8C108.525 103.56 108.588 103.3 108.588 103.02C108.588 102.573 108.458 102.23 108.198 101.99C107.938 101.75 107.591 101.63 107.158 101.63C106.711 101.63 106.335 101.757 106.028 102.01C105.728 102.263 105.525 102.617 105.418 103.07L104.688 102.91C104.775 102.503 104.931 102.153 105.158 101.86C105.385 101.567 105.668 101.34 106.008 101.18C106.348 101.013 106.728 100.93 107.148 100.93C107.595 100.93 107.985 101.02 108.318 101.2C108.651 101.38 108.911 101.627 109.098 101.94C109.291 102.253 109.388 102.613 109.388 103.02C109.388 103.3 109.328 103.57 109.208 103.83C109.095 104.09 108.921 104.37 108.688 104.67C108.455 104.97 108.155 105.32 107.788 105.72L105.898 107.8H109.588V108.5H104.748ZM113.184 108.62C112.797 108.62 112.437 108.553 112.104 108.42C111.777 108.287 111.491 108.097 111.244 107.85C110.997 107.603 110.811 107.31 110.684 106.97L111.294 106.67C111.447 107.057 111.697 107.363 112.044 107.59C112.397 107.81 112.777 107.92 113.184 107.92C113.511 107.92 113.801 107.843 114.054 107.69C114.314 107.537 114.517 107.33 114.664 107.07C114.811 106.803 114.884 106.507 114.884 106.18C114.884 105.84 114.807 105.54 114.654 105.28C114.507 105.02 114.307 104.817 114.054 104.67C113.801 104.517 113.514 104.44 113.194 104.44C112.867 104.44 112.564 104.517 112.284 104.67C112.011 104.817 111.811 104.997 111.684 105.21L111.054 105.09L111.614 101.05H115.384V101.75H111.904L112.214 101.48L111.764 104.66L111.454 104.52C111.687 104.233 111.961 104.03 112.274 103.91C112.587 103.783 112.907 103.72 113.234 103.72C113.714 103.72 114.137 103.833 114.504 104.06C114.871 104.28 115.157 104.577 115.364 104.95C115.577 105.317 115.684 105.727 115.684 106.18C115.684 106.64 115.574 107.057 115.354 107.43C115.141 107.797 114.844 108.087 114.464 108.3C114.091 108.513 113.664 108.62 113.184 108.62ZM122.075 103.06C122.609 103.107 123.072 103.247 123.465 103.48C123.865 103.713 124.175 104.027 124.395 104.42C124.615 104.813 124.725 105.28 124.725 105.82C124.725 106.36 124.619 106.83 124.405 107.23C124.192 107.623 123.889 107.937 123.495 108.17C123.102 108.397 122.629 108.533 122.075 108.58V110.9H121.215V108.58C120.689 108.533 120.225 108.397 119.825 108.17C119.425 107.937 119.115 107.623 118.895 107.23C118.675 106.83 118.565 106.36 118.565 105.82C118.565 105.273 118.672 104.803 118.885 104.41C119.099 104.01 119.405 103.697 119.805 103.47C120.205 103.237 120.685 103.1 121.245 103.06V100.9H122.075V103.06ZM121.245 103.79C120.839 103.83 120.505 103.933 120.245 104.1C119.985 104.267 119.792 104.493 119.665 104.78C119.545 105.067 119.485 105.413 119.485 105.82C119.485 106.22 119.545 106.567 119.665 106.86C119.792 107.147 119.985 107.377 120.245 107.55C120.505 107.717 120.839 107.82 121.245 107.86V103.79ZM122.075 107.86C122.475 107.813 122.802 107.707 123.055 107.54C123.315 107.373 123.505 107.147 123.625 106.86C123.752 106.567 123.815 106.22 123.815 105.82C123.815 105.42 123.752 105.077 123.625 104.79C123.499 104.503 123.305 104.277 123.045 104.11C122.792 103.943 122.469 103.84 122.075 103.8V107.86ZM128.191 103.04C128.651 103.04 129.045 103.14 129.371 103.34C129.705 103.54 129.958 103.823 130.131 104.19C130.311 104.55 130.401 104.973 130.401 105.46V105.99H126.731C126.745 106.597 126.898 107.06 127.191 107.38C127.491 107.693 127.908 107.85 128.441 107.85C128.781 107.85 129.081 107.82 129.341 107.76C129.608 107.693 129.881 107.6 130.161 107.48V108.25C129.888 108.37 129.618 108.457 129.351 108.51C129.085 108.57 128.768 108.6 128.401 108.6C127.895 108.6 127.445 108.497 127.051 108.29C126.665 108.083 126.361 107.777 126.141 107.37C125.928 106.957 125.821 106.453 125.821 105.86C125.821 105.273 125.918 104.77 126.111 104.35C126.311 103.93 126.588 103.607 126.941 103.38C127.301 103.153 127.718 103.04 128.191 103.04ZM128.181 103.76C127.761 103.76 127.428 103.897 127.181 104.17C126.941 104.437 126.798 104.81 126.751 105.29H129.481C129.481 104.983 129.435 104.717 129.341 104.49C129.248 104.263 129.105 104.087 128.911 103.96C128.725 103.827 128.481 103.76 128.181 103.76ZM136.076 104.49C136.076 104.823 135.976 105.083 135.776 105.27C135.576 105.457 135.319 105.583 135.006 105.65V105.69C135.339 105.737 135.629 105.857 135.876 106.05C136.123 106.237 136.246 106.53 136.246 106.93C136.246 107.157 136.203 107.367 136.116 107.56C136.036 107.753 135.909 107.92 135.736 108.06C135.563 108.2 135.339 108.31 135.066 108.39C134.793 108.463 134.463 108.5 134.076 108.5H131.766V103.14H134.066C134.446 103.14 134.786 103.183 135.086 103.27C135.393 103.35 135.633 103.49 135.806 103.69C135.986 103.883 136.076 104.15 136.076 104.49ZM135.336 106.93C135.336 106.623 135.219 106.403 134.986 106.27C134.753 106.137 134.409 106.07 133.956 106.07H132.646V107.79H133.976C134.416 107.79 134.753 107.727 134.986 107.6C135.219 107.467 135.336 107.243 135.336 106.93ZM135.186 104.6C135.186 104.347 135.093 104.163 134.906 104.05C134.726 103.93 134.429 103.87 134.016 103.87H132.646V105.34H133.856C134.289 105.34 134.619 105.28 134.846 105.16C135.073 105.04 135.186 104.853 135.186 104.6ZM140.078 103.04C140.738 103.04 141.268 103.27 141.668 103.73C142.074 104.19 142.278 104.883 142.278 105.81C142.278 106.417 142.184 106.93 141.998 107.35C141.818 107.763 141.561 108.077 141.228 108.29C140.901 108.497 140.514 108.6 140.068 108.6C139.794 108.6 139.551 108.563 139.338 108.49C139.124 108.417 138.941 108.323 138.788 108.21C138.641 108.09 138.514 107.96 138.408 107.82H138.348C138.361 107.933 138.374 108.077 138.388 108.25C138.401 108.423 138.408 108.573 138.408 108.7V110.9H137.528V103.14H138.248L138.368 103.87H138.408C138.514 103.717 138.641 103.577 138.788 103.45C138.941 103.323 139.121 103.223 139.328 103.15C139.541 103.077 139.791 103.04 140.078 103.04ZM139.918 103.78C139.558 103.78 139.268 103.85 139.048 103.99C138.828 104.123 138.668 104.327 138.568 104.6C138.468 104.873 138.414 105.22 138.408 105.64V105.81C138.408 106.25 138.454 106.623 138.548 106.93C138.641 107.237 138.798 107.47 139.018 107.63C139.244 107.79 139.551 107.87 139.938 107.87C140.264 107.87 140.531 107.78 140.738 107.6C140.951 107.42 141.108 107.177 141.208 106.87C141.314 106.557 141.368 106.2 141.368 105.8C141.368 105.187 141.248 104.697 141.008 104.33C140.774 103.963 140.411 103.78 139.918 103.78ZM145.71 103.05C146.363 103.05 146.847 103.193 147.16 103.48C147.473 103.767 147.63 104.223 147.63 104.85V108.5H146.99L146.82 107.74H146.78C146.627 107.933 146.467 108.097 146.3 108.23C146.14 108.357 145.953 108.45 145.74 108.51C145.533 108.57 145.28 108.6 144.98 108.6C144.66 108.6 144.37 108.543 144.11 108.43C143.857 108.317 143.657 108.143 143.51 107.91C143.363 107.67 143.29 107.37 143.29 107.01C143.29 106.477 143.5 106.067 143.92 105.78C144.34 105.487 144.987 105.327 145.86 105.3L146.77 105.27V104.95C146.77 104.503 146.673 104.193 146.48 104.02C146.287 103.847 146.013 103.76 145.66 103.76C145.38 103.76 145.113 103.803 144.86 103.89C144.607 103.97 144.37 104.063 144.15 104.17L143.88 103.51C144.113 103.383 144.39 103.277 144.71 103.19C145.03 103.097 145.363 103.05 145.71 103.05ZM145.97 105.91C145.303 105.937 144.84 106.043 144.58 106.23C144.327 106.417 144.2 106.68 144.2 107.02C144.2 107.32 144.29 107.54 144.47 107.68C144.657 107.82 144.893 107.89 145.18 107.89C145.633 107.89 146.01 107.767 146.31 107.52C146.61 107.267 146.76 106.88 146.76 106.36V105.88L145.97 105.91ZM153.366 108.5H152.476V103.87H150.896C150.829 104.717 150.746 105.44 150.646 106.04C150.546 106.633 150.419 107.117 150.266 107.49C150.112 107.863 149.929 108.137 149.716 108.31C149.502 108.483 149.252 108.57 148.966 108.57C148.879 108.57 148.792 108.563 148.706 108.55C148.626 108.543 148.559 108.527 148.506 108.5V107.84C148.546 107.853 148.589 107.863 148.636 107.87C148.682 107.877 148.729 107.88 148.776 107.88C148.922 107.88 149.056 107.82 149.176 107.7C149.296 107.58 149.402 107.397 149.496 107.15C149.596 106.903 149.686 106.593 149.766 106.22C149.846 105.84 149.916 105.393 149.976 104.88C150.036 104.367 150.089 103.787 150.136 103.14H153.366V108.5ZM155.397 108.5H154.377L155.907 106.25C155.7 106.197 155.5 106.113 155.307 106C155.113 105.88 154.957 105.717 154.837 105.51C154.717 105.297 154.657 105.033 154.657 104.72C154.657 104.207 154.83 103.817 155.177 103.55C155.523 103.277 155.983 103.14 156.557 103.14H158.957V108.5H158.077V106.37H156.777L155.397 108.5ZM155.507 104.73C155.507 105.037 155.62 105.267 155.847 105.42C156.08 105.567 156.403 105.64 156.817 105.64H158.077V103.87H156.647C156.24 103.87 155.947 103.95 155.767 104.11C155.593 104.27 155.507 104.477 155.507 104.73ZM162.082 108.5V108L164.162 105.71C164.569 105.263 164.899 104.893 165.152 104.6C165.412 104.307 165.605 104.04 165.732 103.8C165.859 103.56 165.922 103.3 165.922 103.02C165.922 102.573 165.792 102.23 165.532 101.99C165.272 101.75 164.925 101.63 164.492 101.63C164.045 101.63 163.669 101.757 163.362 102.01C163.062 102.263 162.859 102.617 162.752 103.07L162.022 102.91C162.109 102.503 162.265 102.153 162.492 101.86C162.719 101.567 163.002 101.34 163.342 101.18C163.682 101.013 164.062 100.93 164.482 100.93C164.929 100.93 165.319 101.02 165.652 101.2C165.985 101.38 166.245 101.627 166.432 101.94C166.625 102.253 166.722 102.613 166.722 103.02C166.722 103.3 166.662 103.57 166.542 103.83C166.429 104.09 166.255 104.37 166.022 104.67C165.789 104.97 165.489 105.32 165.122 105.72L163.232 107.8H166.922V108.5H162.082ZM171.168 108.62C170.581 108.62 170.065 108.46 169.618 108.14C169.178 107.813 168.835 107.363 168.588 106.79C168.341 106.21 168.218 105.537 168.218 104.77C168.218 104.003 168.341 103.333 168.588 102.76C168.835 102.18 169.178 101.73 169.618 101.41C170.058 101.09 170.571 100.93 171.158 100.93C171.745 100.93 172.258 101.09 172.698 101.41C173.138 101.73 173.481 102.18 173.728 102.76C173.975 103.333 174.098 104.003 174.098 104.77C174.098 105.537 173.975 106.21 173.728 106.79C173.488 107.37 173.148 107.82 172.708 108.14C172.268 108.46 171.755 108.62 171.168 108.62ZM171.168 107.87C171.595 107.87 171.968 107.74 172.288 107.48C172.608 107.22 172.858 106.86 173.038 106.4C173.218 105.933 173.308 105.39 173.308 104.77C173.308 104.15 173.218 103.61 173.038 103.15C172.858 102.683 172.608 102.323 172.288 102.07C171.968 101.81 171.591 101.68 171.158 101.68C170.731 101.68 170.358 101.81 170.038 102.07C169.718 102.323 169.468 102.683 169.288 103.15C169.108 103.61 169.018 104.15 169.018 104.77C169.018 105.383 169.108 105.923 169.288 106.39C169.468 106.857 169.718 107.22 170.038 107.48C170.365 107.74 170.741 107.87 171.168 107.87ZM175.402 108.5V108L177.482 105.71C177.889 105.263 178.219 104.893 178.472 104.6C178.732 104.307 178.926 104.04 179.052 103.8C179.179 103.56 179.242 103.3 179.242 103.02C179.242 102.573 179.112 102.23 178.852 101.99C178.592 101.75 178.246 101.63 177.812 101.63C177.366 101.63 176.989 101.757 176.682 102.01C176.382 102.263 176.179 102.617 176.072 103.07L175.342 102.91C175.429 102.503 175.586 102.153 175.812 101.86C176.039 101.567 176.322 101.34 176.662 101.18C177.002 101.013 177.382 100.93 177.802 100.93C178.249 100.93 178.639 101.02 178.972 101.2C179.306 101.38 179.566 101.627 179.752 101.94C179.946 102.253 180.042 102.613 180.042 103.02C180.042 103.3 179.982 103.57 179.862 103.83C179.749 104.09 179.576 104.37 179.342 104.67C179.109 104.97 178.809 105.32 178.442 105.72L176.552 107.8H180.242V108.5H175.402ZM183.818 108.62C183.352 108.62 182.938 108.517 182.578 108.31C182.218 108.097 181.935 107.807 181.728 107.44C181.522 107.067 181.418 106.64 181.418 106.16C181.418 105.893 181.448 105.63 181.508 105.37C181.575 105.11 181.672 104.853 181.798 104.6C181.932 104.347 182.092 104.093 182.278 103.84L184.378 101.05H185.338L182.748 104.44L182.598 104.53C182.698 104.363 182.815 104.237 182.948 104.15C183.082 104.057 183.228 103.99 183.388 103.95C183.555 103.91 183.732 103.89 183.918 103.89C184.352 103.89 184.742 103.993 185.088 104.2C185.435 104.4 185.708 104.677 185.908 105.03C186.115 105.383 186.218 105.793 186.218 106.26C186.218 106.707 186.112 107.11 185.898 107.47C185.692 107.823 185.408 108.103 185.048 108.31C184.688 108.517 184.278 108.62 183.818 108.62ZM183.818 107.92C184.125 107.92 184.398 107.85 184.638 107.71C184.878 107.563 185.068 107.363 185.208 107.11C185.348 106.857 185.418 106.573 185.418 106.26C185.418 105.94 185.348 105.657 185.208 105.41C185.075 105.163 184.888 104.97 184.648 104.83C184.408 104.683 184.132 104.61 183.818 104.61C183.512 104.61 183.235 104.683 182.988 104.83C182.748 104.97 182.558 105.163 182.418 105.41C182.285 105.657 182.218 105.94 182.218 106.26C182.218 106.573 182.288 106.857 182.428 107.11C182.568 107.363 182.758 107.563 182.998 107.71C183.238 107.85 183.512 107.92 183.818 107.92Z" fill="black"/>
<path d="M323.44 110.62C323.053 110.62 322.697 110.553 322.37 110.42C322.043 110.287 321.757 110.097 321.51 109.85C321.27 109.603 321.087 109.31 320.96 108.97L321.6 108.67C321.753 109.057 321.993 109.363 322.32 109.59C322.647 109.81 323.02 109.92 323.44 109.92C323.773 109.92 324.07 109.857 324.33 109.73C324.59 109.597 324.793 109.407 324.94 109.16C325.087 108.913 325.16 108.613 325.16 108.26C325.16 107.907 325.083 107.607 324.93 107.36C324.783 107.113 324.58 106.927 324.32 106.8C324.06 106.673 323.763 106.61 323.43 106.61C323.343 106.61 323.247 106.613 323.14 106.62C323.04 106.627 322.957 106.637 322.89 106.65L322.73 106.3L324.74 103.75H321.31V103.05H325.64V103.75L323.76 106.12L323.66 105.99C324.107 106.003 324.503 106.11 324.85 106.31C325.197 106.503 325.467 106.767 325.66 107.1C325.86 107.433 325.96 107.82 325.96 108.26C325.96 108.7 325.853 109.1 325.64 109.46C325.427 109.813 325.13 110.097 324.75 110.31C324.37 110.517 323.933 110.62 323.44 110.62ZM326.614 111.7L329.994 103.46H330.864L327.484 111.7H326.614ZM333.901 110.62C333.514 110.62 333.154 110.553 332.821 110.42C332.494 110.287 332.208 110.097 331.961 109.85C331.714 109.603 331.528 109.31 331.401 108.97L332.011 108.67C332.164 109.057 332.414 109.363 332.761 109.59C333.114 109.81 333.494 109.92 333.901 109.92C334.228 109.92 334.518 109.843 334.771 109.69C335.031 109.537 335.234 109.33 335.381 109.07C335.528 108.803 335.601 108.507 335.601 108.18C335.601 107.84 335.524 107.54 335.371 107.28C335.224 107.02 335.024 106.817 334.771 106.67C334.518 106.517 334.231 106.44 333.911 106.44C333.584 106.44 333.281 106.517 333.001 106.67C332.728 106.817 332.528 106.997 332.401 107.21L331.771 107.09L332.331 103.05H336.101V103.75H332.621L332.931 103.48L332.481 106.66L332.171 106.52C332.404 106.233 332.678 106.03 332.991 105.91C333.304 105.783 333.624 105.72 333.951 105.72C334.431 105.72 334.854 105.833 335.221 106.06C335.588 106.28 335.874 106.577 336.081 106.95C336.294 107.317 336.401 107.727 336.401 108.18C336.401 108.64 336.291 109.057 336.071 109.43C335.858 109.797 335.561 110.087 335.181 110.3C334.808 110.513 334.381 110.62 333.901 110.62ZM340.452 110.6C340.146 110.6 339.879 110.573 339.652 110.52C339.432 110.473 339.226 110.403 339.032 110.31V109.55C339.232 109.63 339.449 109.7 339.682 109.76C339.916 109.82 340.179 109.85 340.472 109.85C340.819 109.85 341.119 109.79 341.372 109.67C341.626 109.543 341.826 109.35 341.972 109.09C342.119 108.83 342.202 108.5 342.222 108.1H339.582V107.38H342.212C342.166 106.833 342.009 106.433 341.742 106.18C341.482 105.927 341.099 105.8 340.592 105.8C340.399 105.8 340.186 105.827 339.952 105.88C339.726 105.933 339.522 105.993 339.342 106.06L339.092 105.35C339.286 105.263 339.516 105.19 339.782 105.13C340.049 105.07 340.316 105.04 340.582 105.04C341.082 105.04 341.522 105.133 341.902 105.32C342.289 105.507 342.589 105.803 342.802 106.21C343.022 106.617 343.132 107.153 343.132 107.82C343.132 108.453 343.016 108.977 342.782 109.39C342.556 109.803 342.239 110.11 341.832 110.31C341.432 110.503 340.972 110.6 340.452 110.6ZM348.136 105.88H346.386V110.5H345.516V105.88H343.786V105.14H348.136V105.88ZM351.222 105.05C351.875 105.05 352.358 105.193 352.672 105.48C352.985 105.767 353.142 106.223 353.142 106.85V110.5H352.502L352.332 109.74H352.292C352.138 109.933 351.978 110.097 351.812 110.23C351.652 110.357 351.465 110.45 351.252 110.51C351.045 110.57 350.792 110.6 350.492 110.6C350.172 110.6 349.882 110.543 349.622 110.43C349.368 110.317 349.168 110.143 349.022 109.91C348.875 109.67 348.802 109.37 348.802 109.01C348.802 108.477 349.012 108.067 349.432 107.78C349.852 107.487 350.498 107.327 351.372 107.3L352.282 107.27V106.95C352.282 106.503 352.185 106.193 351.992 106.02C351.798 105.847 351.525 105.76 351.172 105.76C350.892 105.76 350.625 105.803 350.372 105.89C350.118 105.97 349.882 106.063 349.662 106.17L349.392 105.51C349.625 105.383 349.902 105.277 350.222 105.19C350.542 105.097 350.875 105.05 351.222 105.05ZM351.482 107.91C350.815 107.937 350.352 108.043 350.092 108.23C349.838 108.417 349.712 108.68 349.712 109.02C349.712 109.32 349.802 109.54 349.982 109.68C350.168 109.82 350.405 109.89 350.692 109.89C351.145 109.89 351.522 109.767 351.822 109.52C352.122 109.267 352.272 108.88 352.272 108.36V107.88L351.482 107.91ZM359.327 105.14V110.5H358.447V105.89H355.677V110.5H354.797V105.14H359.327ZM365.697 107.81C365.697 108.257 365.638 108.653 365.518 109C365.404 109.34 365.238 109.63 365.018 109.87C364.804 110.11 364.541 110.293 364.228 110.42C363.921 110.54 363.578 110.6 363.198 110.6C362.844 110.6 362.518 110.54 362.218 110.42C361.918 110.293 361.658 110.11 361.438 109.87C361.218 109.63 361.044 109.34 360.918 109C360.798 108.653 360.738 108.257 360.738 107.81C360.738 107.217 360.838 106.717 361.038 106.31C361.238 105.897 361.524 105.583 361.898 105.37C362.271 105.15 362.714 105.04 363.228 105.04C363.714 105.04 364.141 105.15 364.508 105.37C364.881 105.583 365.171 105.897 365.378 106.31C365.591 106.717 365.697 107.217 365.697 107.81ZM361.648 107.81C361.648 108.23 361.701 108.597 361.808 108.91C361.921 109.217 362.094 109.453 362.328 109.62C362.561 109.787 362.858 109.87 363.218 109.87C363.578 109.87 363.874 109.787 364.108 109.62C364.341 109.453 364.511 109.217 364.618 108.91C364.731 108.597 364.788 108.23 364.788 107.81C364.788 107.383 364.731 107.02 364.618 106.72C364.504 106.42 364.331 106.19 364.098 106.03C363.871 105.863 363.574 105.78 363.208 105.78C362.661 105.78 362.264 105.96 362.018 106.32C361.771 106.68 361.648 107.177 361.648 107.81ZM371.402 106.49C371.402 106.823 371.302 107.083 371.102 107.27C370.902 107.457 370.646 107.583 370.332 107.65V107.69C370.666 107.737 370.956 107.857 371.202 108.05C371.449 108.237 371.572 108.53 371.572 108.93C371.572 109.157 371.529 109.367 371.442 109.56C371.362 109.753 371.236 109.92 371.062 110.06C370.889 110.2 370.666 110.31 370.392 110.39C370.119 110.463 369.789 110.5 369.402 110.5H367.092V105.14H369.392C369.772 105.14 370.112 105.183 370.412 105.27C370.719 105.35 370.959 105.49 371.132 105.69C371.312 105.883 371.402 106.15 371.402 106.49ZM370.662 108.93C370.662 108.623 370.546 108.403 370.312 108.27C370.079 108.137 369.736 108.07 369.282 108.07H367.972V109.79H369.302C369.742 109.79 370.079 109.727 370.312 109.6C370.546 109.467 370.662 109.243 370.662 108.93ZM370.512 106.6C370.512 106.347 370.419 106.163 370.232 106.05C370.052 105.93 369.756 105.87 369.342 105.87H367.972V107.34H369.182C369.616 107.34 369.946 107.28 370.172 107.16C370.399 107.04 370.512 106.853 370.512 106.6Z" fill="black"/>
</svg>
