<svg xmlns="http://www.w3.org/2000/svg" width="28" height="28" viewBox="0 0 28 28" role="img" aria-label="Mindfulness thinker logo">
  <g transform="matrix(0.038123 0 0 0.038123 -1.630499 -0.582111)">
    <path fill="#136897" fill-rule="evenodd" d="M 466.00 723.50 L 429.00 722.50 L 376.00 707.50 L 369.50 710.00 L 366.00 722.50 L 344.00 721.50 L 338.00 618.50 L 183.00 618.50 L 177.50 632.00 L 162.50 719.00 L 155.00 723.50 L 140.00 722.50 L 136.50 719.00 L 165.50 521.00 L 157.50 435.00 L 136.50 312.00 L 142.00 306.50 L 172.00 306.50 L 178.50 310.00 L 187.50 386.00 L 191.50 470.00 L 199.50 494.00 L 214.00 511.50 L 227.00 518.50 L 249.00 522.50 L 367.50 523.00 L 369.50 647.00 L 373.00 652.50 L 375.50 650.00 L 390.50 604.00 L 400.50 543.00 L 411.50 522.00 L 433.50 496.00 L 425.00 494.50 L 351.00 512.50 L 245.00 512.50 L 232.00 508.50 L 212.50 494.00 L 201.50 473.00 L 198.50 456.00 L 200.50 412.00 L 207.50 369.00 L 222.50 314.00 L 233.50 285.00 L 253.50 251.00 L 272.00 230.50 L 291.00 216.50 L 354.00 193.50 L 364.00 186.50 L 372.50 173.00 L 377.50 148.00 L 387.50 129.00 L 408.00 112.50 L 431.00 106.50 L 459.00 111.50 L 481.50 127.00 L 497.50 153.00 L 499.50 176.00 L 487.50 200.00 L 484.50 220.00 L 472.00 224.50 L 464.00 237.50 L 439.00 251.50 L 421.00 242.50 L 413.00 242.50 L 392.50 262.00 L 406.50 307.00 L 426.50 325.00 L 426.50 333.00 L 416.50 349.00 L 419.00 351.50 L 422.50 348.00 L 468.50 292.00 L 466.00 286.50 L 452.00 278.50 L 440.00 278.50 L 434.50 273.00 L 435.50 263.00 L 445.00 254.50 L 466.00 242.50 L 482.00 244.50 L 493.50 256.00 L 503.50 285.00 L 500.50 304.00 L 466.50 382.00 L 434.50 420.00 L 487.00 429.50 L 500.00 436.50 L 509.00 450.50 L 511.50 432.00 L 508.00 428.50 L 448.50 418.00 L 469.50 389.00 L 476.00 382.50 L 484.00 382.50 L 525.00 397.50 L 545.50 412.00 L 562.50 436.00 L 570.50 457.00 L 569.50 478.00 L 551.50 504.00 L 550.50 514.00 L 578.50 637.00 L 585.50 649.00 L 604.00 665.50 L 638.00 686.50 L 676.00 700.50 L 683.50 707.00 L 683.50 714.00 L 678.00 718.50 L 656.00 720.50 L 625.00 719.50 L 591.00 710.50 L 541.00 713.50 L 529.50 707.00 L 526.50 701.00 L 532.50 671.00 L 529.50 644.00 L 488.50 562.00 L 490.50 539.00 L 517.50 480.00 L 536.00 487.50 L 541.50 479.00 L 540.50 465.00 L 536.00 458.50 L 534.00 481.50 L 518.50 471.00 L 512.00 458.50 L 501.50 500.00 L 438.50 618.00 L 427.50 647.00 L 428.50 661.00 L 452.00 683.50 L 501.50 707.00 L 501.50 715.00 L 496.00 719.50 L 466.00 723.50 Z M 398.50 416.00 L 400.50 414.00 L 349.50 364.00 L 314.00 318.50 L 312.50 324.00 L 326.50 349.00 L 347.50 373.00 L 316.50 414.00 L 398.50 416.00 Z M 224.50 597.00 L 337.00 595.50 L 338.50 554.00 L 194.00 551.50 L 184.50 595.00 L 224.50 597.00 Z"/>
    <path fill="#f08b3d" d="M 506.00 248.50 L 491.50 237.00 L 506.50 221.00 L 520.50 195.00 L 524.50 178.00 L 524.50 152.00 L 514.50 121.00 L 504.50 106.00 L 491.00 91.50 L 463.00 73.50 L 429.00 64.50 L 396.00 66.50 L 368.00 77.50 L 352.00 88.50 L 335.50 106.00 L 328.50 117.00 L 320.50 136.00 L 316.50 160.00 L 317.50 180.00 L 320.50 191.00 L 302.00 196.50 L 297.50 179.00 L 297.50 148.00 L 300.50 132.00 L 312.50 103.00 L 326.50 83.00 L 347.00 64.50 L 365.00 53.50 L 383.00 46.50 L 412.00 41.50 L 443.00 43.50 L 458.00 47.50 L 481.00 57.50 L 507.00 76.50 L 526.50 100.00 L 538.50 124.00 L 543.50 143.00 L 545.50 165.00 L 541.50 193.00 L 534.50 211.00 L 520.50 233.00 L 506.00 248.50 Z"/>
  </g>
</svg>